<?xml version="1.0" standalone="no"?>
<!DOCTYPE svg PUBLIC "-//W3C//DTD SVG 20010904//EN"
 "http://www.w3.org/TR/2001/REC-SVG-20010904/DTD/svg10.dtd">
<svg version="1.0" xmlns="http://www.w3.org/2000/svg"
 width="512.000000pt" height="512.000000pt" viewBox="0 0 512.000000 512.000000"
 preserveAspectRatio="xMidYMid meet">
<metadata>
Created by potrace 1.14, written by Peter Selinger 2001-2017
</metadata>
<g transform="translate(0.000000,512.000000) scale(0.100000,-0.100000)"
fill="#000000" stroke="none">
<path d="M2215 5015 c-25 -24 -25 -24 -25 -238 0 -210 0 -214 23 -235 13 -12
29 -22 36 -22 9 0 11 -9 7 -32 -28 -155 -36 -343 -26 -668 3 -118 1 -153 -13
-188 -24 -61 -70 -125 -122 -168 l-46 -37 -30 29 c-17 16 -44 58 -62 94 -31
63 -32 68 -35 221 l-4 156 26 7 c15 4 35 15 46 26 19 19 20 34 20 230 0 211 0
211 -25 235 l-24 25 -369 0 -369 0 -21 -22 c-19 -22 -21 -35 -23 -237 l-2
-214 27 -24 c15 -12 36 -23 48 -23 20 0 20 -4 16 -157 -6 -250 -22 -274 -312
-466 -112 -75 -218 -153 -235 -174 -42 -50 -86 -142 -108 -223 -17 -61 -18
-151 -18 -1305 l0 -1240 23 -45 c30 -56 86 -116 133 -140 20 -11 65 -24 100
-30 45 -7 595 -10 1846 -8 l1781 3 26 24 26 24 0 1557 c0 1688 3 1607 -54
1718 -52 102 -115 160 -281 258 -115 68 -187 134 -218 202 -20 43 -22 65 -25
276 -3 224 -3 229 19 252 21 22 22 31 20 166 -2 138 -3 144 -27 168 l-24 25
-298 3 c-200 2 -310 0 -335 -8 -58 -17 -69 -53 -65 -206 3 -112 5 -125 26
-147 24 -25 24 -26 20 -249 l-3 -224 -32 -64 c-39 -79 -62 -102 -178 -174
l-90 -55 -7 32 c-4 18 -3 97 3 177 15 190 3 462 -27 598 -3 14 0 22 9 22 7 0
24 11 36 24 23 24 23 29 22 238 l-1 213 -26 23 c-25 22 -26 22 -390 22 l-365
0 -24 -25z m1615 -395 l0 -30 -210 0 -210 0 0 30 0 30 210 0 210 0 0 -30z
m-40 -414 c0 -256 10 -306 78 -412 52 -79 94 -115 244 -207 135 -83 197 -140
231 -215 l22 -47 3 -1507 2 -1508 -439 0 -440 0 14 41 c12 32 15 99 15 295 l0
254 250 0 250 0 0 115 0 115 -250 0 -250 0 0 570 0 569 128 3 127 3 0 90 0 90
-127 3 -128 3 0 109 0 110 130 0 130 0 0 104 c0 57 -3 118 -6 135 l-6 31 -122
0 -122 0 -17 73 c-38 164 -135 290 -296 387 -50 30 -107 70 -126 90 l-35 35
103 62 c158 95 239 190 281 332 13 43 16 102 16 278 l0 223 170 0 170 0 0
-224z m-1940 60 c0 -24 -2 -24 -112 -31 -62 -3 -178 -5 -258 -3 l-145 3 -3 28
-3 27 260 0 261 0 0 -24z m969 -621 c35 -154 138 -285 300 -381 98 -57 152
-114 195 -204 l31 -65 3 -257 3 -258 -750 0 -751 0 0 198 c0 238 10 317 51
399 38 79 98 139 196 196 43 25 97 61 120 81 76 66 153 204 178 319 l5 27 204
0 203 0 12 -55z m-1129 -774 l0 -60 -302 -3 -303 -3 -57 -27 c-104 -49 -171
-141 -189 -260 -5 -35 -9 -467 -9 -960 l0 -898 430 0 430 0 0 -60 0 -60 -475
0 -475 0 0 1048 0 1047 24 51 c29 62 116 153 176 184 108 56 133 59 453 59
l297 1 0 -59z m0 -228 l0 -48 -92 0 c-109 0 -163 -21 -239 -92 -137 -128 -137
-358 0 -486 76 -71 130 -92 239 -92 l92 0 0 -82 0 -83 -355 0 -355 0 0 -200 0
-200 355 0 355 0 0 -290 0 -290 -370 0 -370 0 0 873 c0 827 1 874 19 912 10
22 31 52 47 66 63 58 65 58 382 59 l292 0 0 -47z m1084 -403 c95 -24 196 -76
261 -134 l50 -44 -75 -76 c-41 -42 -79 -76 -85 -76 -6 0 -26 13 -45 29 -77 63
-162 91 -276 91 -113 0 -178 -24 -292 -107 -23 -16 -24 -15 -103 63 l-80 79
48 43 c60 53 191 118 274 137 96 20 232 19 323 -5z m-47 -341 c80 -30 162
-112 193 -194 31 -83 25 -197 -14 -273 -105 -206 -379 -250 -541 -87 -181 181
-102 490 145 566 52 15 158 10 217 -12z m283 -884 l0 -115 -405 0 -405 0 0
115 0 115 405 0 405 0 0 -115z m340 -539 c0 -74 -25 -121 -80 -148 -32 -17
-85 -18 -670 -18 -601 0 -637 1 -670 19 -48 25 -69 66 -77 145 l-6 66 752 0
751 0 0 -64z"/>
</g>
</svg>
